<?xml version="1.0" standalone="no"?><!DOCTYPE svg PUBLIC "-//W3C//DTD SVG 1.1//EN" "http://www.w3.org/Graphics/SVG/1.1/DTD/svg11.dtd"><svg t="1745654849095" class="icon" viewBox="0 0 1024 1024" version="1.1" xmlns="http://www.w3.org/2000/svg" p-id="6357" xmlns:xlink="http://www.w3.org/1999/xlink" width="16" height="16"><path d="M0 0h1024v1024H0z" fill="#FFFFFF" fill-opacity="0" p-id="6358"></path><path d="M0 507.392a512 507.392 0 1 0 1024 0 512 507.392 0 1 0-1024 0Z" fill="#FFD963" p-id="6359"></path><path d="M509.346909 92.253091c183.621818 0 332.474182 147.549091 332.474182 329.448727v184.971637c0 36.770909-29.789091 66.513455-66.513455 66.513454H243.432727c-36.770909 0-66.513455-29.789091-66.513454-66.513454V421.701818c0-181.946182 148.852364-329.448727 332.474182-329.448727zM815.941818 664.064s30.208 138.705455 83.595637 99.607273c53.341091-39.005091-83.595636-99.607273-83.595637-99.607273z" fill="#E19503" p-id="6360"></path><path d="M206.661818 663.645091s-25.320727 139.636364-80.058182 102.539636c-54.690909-37.143273 80.058182-102.539636 80.058182-102.539636z" fill="#E29B11" p-id="6361"></path><path d="M780.753455 939.333818A513.070545 513.070545 0 0 1 512 1014.737455c-98.583273 0-190.603636-27.554909-268.753455-75.403637a212.247273 212.247273 0 0 1 201.681455-145.966545h134.144a212.247273 212.247273 0 0 1 201.681455 145.966545z" fill="#DA7979" p-id="6362"></path><path d="M632.506182 787.642182l-20.759273 65.024c0 18.199273-44.683636 32.954182-99.746909 32.954182-55.063273 0-99.746909-14.754909-99.746909-32.954182l-20.759273-65.024a266.146909 266.146909 0 0 1-148.293818-214.341818H232.261818a46.126545 46.126545 0 0 1 0-92.253091H242.036364V420.864a199.493818 199.493818 0 0 1 199.493818-199.447273h140.939636A199.493818 199.493818 0 0 1 781.963636 420.864v60.183273h9.728a46.126545 46.126545 0 0 1 0 92.253091h-10.891636a266.146909 266.146909 0 0 1-148.293818 214.341818z" fill="#FFE8DB" p-id="6363"></path><path d="M609.745455 544.302545c-18.013091 0-32.581818-14.429091-32.581819-32.302545 0-17.826909 14.568727-32.302545 32.581819-32.302545 18.013091 0 32.581818 14.429091 32.581818 32.302545a32.442182 32.442182 0 0 1-32.581818 32.302545z m-195.49091 0c-18.013091 0-32.581818-14.429091-32.581818-32.302545 0-17.826909 14.568727-32.302545 32.581818-32.302545 18.013091 0 32.581818 14.429091 32.581819 32.302545a32.442182 32.442182 0 0 1-32.581819 32.302545z" fill="#875151" p-id="6364"></path><path d="M569.157818 615.470545a83.130182 65.908364 0 1 0 166.260364 0 83.130182 65.908364 0 1 0-166.260364 0Z" fill="#FFC1BB" p-id="6365"></path><path d="M288.581818 615.470545a83.130182 65.908364 0 1 0 166.260364 0 83.130182 65.908364 0 1 0-166.260364 0Z" fill="#FFC1BB" p-id="6366"></path><path d="M277.736727 220.066909l232.727273-37.236364 126.417455 37.236364-51.246546 152.389818c-9.122909 27.089455-34.443636 45.335273-63.022545 45.335273H257.536a33.233455 33.233455 0 0 1-31.511273-43.845818l51.712-153.879273z" fill="#E29B11" p-id="6367"></path><path d="M610.210909 220.066909h126.417455l75.403636 149.504a33.233455 33.233455 0 0 1-29.696 48.221091h-82.618182a66.513455 66.513455 0 0 1-65.582545-55.482182l-23.924364-142.242909z" fill="#E29B11" p-id="6368"></path></svg>